<svg xmlns="http://www.w3.org/2000/svg" viewBox="0 0 500 500" style="enable-background:new 0 0 500 500" xml:space="preserve"><path d="M250 432.3c-100.7 0-182.3-81.6-182.3-182.3S149.3 67.7 250 67.7 432.3 149.3 432.3 250 350.7 432.3 250 432.3zm-38.7-21c9.8-7.5 19.3-16.2 28.1-26-4.5-5.2-8.8-10.6-13-16.3l-16.8 41.9c.6.1 1.1.3 1.7.4zm38.5-38.5c5.7-7.3 11-15.2 16-23.5L250 310l-15.9 39.9c4.8 8.1 10.1 15.8 15.7 22.9zm9.5 11.5c9.1 10.2 18.9 19.3 29.1 27.1.7-.2 1.4-.3 2-.5l-17.6-44c-4.3 6.1-8.8 11.9-13.5 17.4zm11.1 30.3c-7.4-5.7-14.5-12.1-21.4-18.9-6.6 6.8-13.5 13.1-20.6 18.8 7.1.9 14.2 1.4 21.6 1.4 6.9 0 13.7-.5 20.4-1.3zM250 84.1c-91.6 0-165.9 74.3-165.9 165.9 0 73.3 47.5 135.4 113.4 157.4l42.6-127.8c-12.4-4.1-21.3-15.8-21.3-29.6 0-17.2 14-31.2 31.2-31.2s31.2 14 31.2 31.2c0 13.8-8.9 25.5-21.3 29.6l42.6 127.8c65.9-22 113.4-84.1 113.4-157.4 0-91.6-74.3-165.9-165.9-165.9zm92.3 258.2-11.6-11.6c20.7-20.7 33.4-49.2 33.4-80.7s-12.8-60.1-33.4-80.7l11.6-11.6c23.6 23.6 38.2 56.3 38.2 92.3.1 36.1-14.6 68.7-38.2 92.3zM295 295c11.5-11.5 18.6-27.4 18.6-45s-7.1-33.5-18.6-45l11.6-11.6c14.5 14.5 23.4 34.5 23.4 56.6s-9 42.1-23.4 56.6L295 295zm-101.6 11.6C178.9 292.1 170 272.1 170 250s9-42.1 23.4-56.6L205 205c-11.5 11.5-18.6 27.4-18.6 45s7.1 33.5 18.6 45l-11.6 11.6zm-35.7 35.7c-23.6-23.6-38.2-56.3-38.2-92.3 0-36.1 14.6-68.7 38.2-92.3l11.6 11.6c-20.7 20.7-33.4 49.2-33.4 80.7s12.8 60.1 33.4 80.7l-11.6 11.6z" style="fill:#3a4750"/><path class="st1" d="M250 432.3v-.2c-50.3 0-95.8-20.4-128.8-53.3-33-33-53.3-78.5-53.3-128.8 0-50.3 20.4-95.8 53.3-128.8 33-33 78.5-53.3 128.8-53.3 50.3 0 95.8 20.4 128.8 53.3 33 33 53.3 78.5 53.3 128.8 0 50.3-20.4 95.8-53.3 128.8-33 33-78.5 53.3-128.8 53.3v.4c100.8 0 182.5-81.7 182.5-182.5S350.8 67.5 250 67.5 67.5 149.2 67.5 250 149.2 432.5 250 432.5v-.2zm-38.7-21 .1.2c9.8-7.5 19.3-16.2 28.1-26l.1-.1-.1-.1c-4.5-5.2-8.8-10.6-13-16.3l-.2-.3-17 42.5.2.1c.6.1 1.1.3 1.7.4h.1l.1-.1-.1-.3v-.2c-.6-.1-1.1-.3-1.7-.4v.2l.2.1 16.8-41.9-.2-.1-.2.1c4.1 5.7 8.5 11.2 13 16.3l.2-.1-.2-.1c-8.8 9.8-18.2 18.5-28.1 26l.2.1v-.2.2zm38.5-38.5.2.1c5.7-7.3 11.1-15.2 16-23.5l.1-.1-16-40-16.2 40.4.1.1c4.9 8.1 10.1 15.8 15.7 23l.2.2.2-.2h-.3l.2-.1c-5.6-7.2-10.8-14.9-15.7-23l-.2.1.2.1 15.8-39.4 15.6 38.9.2-.1-.2-.1c-5 8.3-10.3 16.2-16 23.5l.1.1.2-.1-.2.1zm9.5 11.5-.2.1c9.1 10.2 18.9 19.3 29.1 27.1l.1.1h.1c.7-.2 1.4-.3 2-.5l.2-.1-17.8-44.6-.2.3c-4.3 6.1-8.8 11.9-13.5 17.5l-.1.1.1.1.2-.1.2.1c4.7-5.5 9.2-11.4 13.5-17.5l-.2-.1-.2.1 17.6 44 .2-.1v-.2c-.7.2-1.4.3-2 .5v.2l.1-.2c-10.2-7.8-19.9-16.8-29-27l-.2.2.2.1-.2-.1zm11.1 30.3.1-.2c-7.4-5.7-14.5-12-21.3-18.9l-.1-.1-.1.2c-6.6 6.8-13.5 13.1-20.6 18.8l-.4.3.5.1c7.1.9 14.3 1.4 21.6 1.4 6.9 0 13.7-.4 20.4-1.3l.5-.1-.4-.3-.2.1v-.2c-6.7.8-13.5 1.2-20.4 1.2-7.3 0-14.5-.5-21.5-1.4v.2l.1.2c7.1-5.7 14-12 20.6-18.8l-.1-.1-.1.1c6.8 6.9 14 13.2 21.4 19v-.4.2zM250 84.1v-.2c-91.7 0-166.1 74.4-166.1 166.1 0 73.4 47.6 135.6 113.5 157.6l.2.1 42.7-128.2-.2-.1c-12.3-4.1-21.2-15.7-21.2-29.4 0-8.6 3.5-16.3 9.1-21.9 5.6-5.6 13.4-9.1 21.9-9.1 8.6 0 16.3 3.5 21.9 9.1 5.6 5.6 9.1 13.4 9.1 21.9 0 13.7-8.9 25.3-21.2 29.4l-.2.1 42.7 128.2.2-.1c66-22 113.5-84.2 113.5-157.6 0-91.7-74.4-166.1-166.1-166.1v.4c45.7 0 87.2 18.5 117.1 48.5 30 30 48.5 71.4 48.5 117.1 0 73.2-47.5 135.3-113.3 157.2l.1.2.2-.1-42.6-127.8-.2.1.1.2c12.5-4.2 21.5-15.9 21.5-29.8 0-17.3-14.1-31.4-31.4-31.4-17.3 0-31.4 14.1-31.4 31.4 0 13.9 9 25.6 21.5 29.8l.1-.2-.2-.1-42.6 127.8.2.1.1-.2c-65.8-21.9-113.3-84-113.3-157.2 0-45.7 18.5-87.2 48.5-117.1 30-30 71.4-48.5 117.1-48.5v-.2zm92.3 258.2.1-.1-11.6-11.6-.1.1.1.1c20.7-20.7 33.5-49.3 33.5-80.9 0-31.6-12.8-60.2-33.5-80.9l-.1.1.1.1 11.6-11.6-.1-.1-.1.1c23.6 23.6 38.2 56.2 38.2 92.2s-14.6 68.6-38.2 92.2l.1.3.1-.1-.1.1.1.1c23.7-23.7 38.3-56.4 38.3-92.5s-14.6-68.8-38.3-92.5l-.1-.1-11.9 11.9.1.1c20.6 20.6 33.4 49.1 33.4 80.6 0 31.5-12.8 59.9-33.4 80.6l-.1.1 11.9 11.9.1-.1-.1-.1zM295 295l.1.1c11.6-11.6 18.7-27.5 18.7-45.1s-7.1-33.6-18.7-45.1l-.1.1.1.1 11.6-11.6-.1-.1-.1.1c14.5 14.5 23.4 34.4 23.4 56.5s-8.9 42-23.4 56.5l.1.1.1-.1-11.6-11.6-.1.1.1.1-.1-.1-.1.1 11.8 11.8.1-.1c14.5-14.5 23.5-34.6 23.5-56.8 0-22.2-9-42.2-23.5-56.8l-.1-.1-12 11.9.1.1c11.5 11.5 18.6 27.3 18.6 44.9 0 17.5-7.1 33.4-18.6 44.9l-.1.1.1.1.2-.1zm-101.6 11.6.1-.1C179 292 170.1 272.1 170.1 250s8.9-42 23.4-56.5l-.1-.1-.1.1 11.6 11.6.1-.1-.1-.1c-11.6 11.6-18.7 27.5-18.7 45.1s7.1 33.6 18.7 45.1l.1-.1-.1-.1-11.6 11.6.1.1.1-.1-.1.1.1.1 11.8-11.8-.1-.1c-11.5-11.5-18.6-27.3-18.6-44.9 0-17.5 7.1-33.4 18.6-44.9l.1-.1-11.9-11.9-.1.1c-14.5 14.5-23.5 34.6-23.5 56.8 0 22.2 9 42.2 23.5 56.8l.1.1.1-.1-.1-.1zm-35.7 35.7.1-.1c-23.6-23.6-38.2-56.2-38.2-92.2s14.6-68.6 38.2-92.2l-.1-.1-.1.1 11.6 11.6.1-.1-.1-.1c-20.7 20.7-33.5 49.3-33.5 80.9 0 31.6 12.8 60.2 33.5 80.9l.1-.1-.1-.1-11.6 11.6.1-.1.1-.1-.1.1.1.1 11.8-11.8-.1-.1c-20.6-20.6-33.4-49.1-33.4-80.6 0-31.5 12.8-59.9 33.4-80.6l.1-.1-11.9-11.9-.1.1c-23.7 23.7-38.3 56.4-38.3 92.5s14.6 68.8 38.3 92.5l.1.1.1-.1-.1-.1z"/></svg>