<svg id="Layer_1" data-name="Layer 1" xmlns="http://www.w3.org/2000/svg" xmlns:xlink="http://www.w3.org/1999/xlink" viewBox="0 0 392.37 363.35"><defs><style>.cls-1,.cls-2{fill:none;}.cls-2{clip-rule:evenodd;}.cls-3{clip-path:url(#clip-path);}.cls-4{font-size:49.05px;font-family:LeagueSpartan-Bold, League Spartan;font-weight:700;}.cls-4,.cls-6,.cls-8{fill:#e6e7e3;}.cls-5{letter-spacing:-0.03em;}.cls-6,.cls-8{font-size:86.65px;font-family:LeagueGothic-Regular, League Gothic;}.cls-7{letter-spacing:-0.01em;}.cls-8{letter-spacing:-0.01em;}.cls-9{letter-spacing:0em;}.cls-10{clip-path:url(#clip-path-2);}.cls-11{fill:#e0e1dc;}.cls-12{clip-path:url(#clip-path-4);}.cls-13{clip-path:url(#clip-path-6);}.cls-14{clip-path:url(#clip-path-8);}.cls-15{clip-path:url(#clip-path-10);}.cls-16{clip-path:url(#clip-path-12);}</style><clipPath id="clip-path" transform="translate(-5.45 -23.33)"><rect id="_Clipping_Path_" data-name="&lt;Clipping Path&gt;" class="cls-1" x="0" y="0" width="800" height="800"/></clipPath><clipPath id="clip-path-2" transform="translate(-5.45 -23.33)"><path id="_Clipping_Path_2" data-name="&lt;Clipping Path&gt;" class="cls-2" d="M91.47,54.4,13.62,77.28,68.43,184.49s3.36,7.23,18.06,7.23c19.63.41,84.08-26.5,84.08-26.5s-73.79,25.49-89.69,16.86S29.14,92.63,30,85.45C32.51,80,91.47,54.4,91.47,54.4"/></clipPath><clipPath id="clip-path-4" transform="translate(-5.45 -23.33)"><path id="_Clipping_Path_4" data-name="&lt;Clipping Path&gt;" class="cls-2" d="M49.59,118.22l29.26,54.44S82.51,177,92.58,177s31.22-2.8,45.11-7.47,42.44-20.22,45.66-25.82S163.09,36.41,163.09,36.41l-11.9,10s7.72,59.41,6.11,71.23-3.22,15.55-27.65,24.26-36,10-43.41,7.47-36.65-31.11-36.65-31.11"/></clipPath><clipPath id="clip-path-6" transform="translate(-5.45 -23.33)"><path id="_Clipping_Path_6" data-name="&lt;Clipping Path&gt;" class="cls-2" d="M168.92,34.78c-1.44,0,27.39,134.79,25,140s-9.61,15.32-41.65,25.94-63,10.94-63.44,12.82c0,7.27,53.18-2.19,65.36-5.31s19.22-6.25,27.87-11.88S200,178.56,200,178.56,170.36,34.78,168.92,34.78"/></clipPath><clipPath id="clip-path-8" transform="translate(-5.45 -23.33)"><path id="_Clipping_Path_8" data-name="&lt;Clipping Path&gt;" class="cls-2" d="M314.73,59.3l74.92,30.43L323.95,191s-4.1,6.87-18.7,5.41c-19.54-1.52-80.73-34.64-80.73-34.64s70.61,32.62,87.31,25.61,60.79-83.92,60.68-91.14c-1.91-5.64-57.78-36.95-57.78-36.95"/></clipPath><clipPath id="clip-path-10" transform="translate(-5.45 -23.33)"><path id="_Clipping_Path_10" data-name="&lt;Clipping Path&gt;" class="cls-2" d="M352,127.44l-34.78,51.33s-4.09,4-14.09,3-30.72-5.86-44-11.88-40-24.32-42.65-30.21S247.88,34.78,247.88,34.78l10.77,11.09s-13.9,58.41-13.55,70.34S246.67,132,270,143.1s34.73,13.46,42.34,11.71S352,127.44,352,127.44"/></clipPath><clipPath id="clip-path-12" transform="translate(-5.45 -23.33)"><path id="_Clipping_Path_12" data-name="&lt;Clipping Path&gt;" class="cls-2" d="M241.41,31.51c1.45.14-41.68,131.54-39.82,137s8,16.21,39.08,30,62.08,17.16,62.32,19.07c-.76,7.24-53.15-7.46-65-11.79s-18.64-8.14-26.73-14.6-16.13-19.53-16.13-19.53S240,31.36,241.41,31.51"/></clipPath></defs><title>front-end-happy-hour</title><g id="_Clip_Group_" data-name="&lt;Clip Group&gt;"><g class="cls-3"><text class="cls-4" transform="translate(54.75 269.76)">F</text><text class="cls-4" transform="translate(81.89 269.76)">R</text><text class="cls-4" transform="translate(113.66 269.76)">O</text><text class="cls-4" transform="translate(156 269.76)">N</text><text class="cls-4" transform="translate(196.17 269.76)">T</text><text class="cls-4" transform="translate(225.4 269.76)"><tspan class="cls-5"> </tspan><tspan x="12.07" y="0">E</tspan></text><text class="cls-4" transform="translate(264.56 269.76)">N</text><text class="cls-4" transform="translate(303.06 269.76)">D</text><text class="cls-6" transform="translate(54.31 341.69)"><tspan class="cls-7">HA</tspan><tspan x="63.08" y="0">P</tspan></text><text class="cls-8" transform="translate(146.55 341.69)">PY HOU<tspan class="cls-9" x="161.51" y="0">R</tspan></text></g></g><g id="_Clip_Group_2" data-name="&lt;Clip Group&gt;"><g class="cls-10"><g id="_Clip_Group_3" data-name="&lt;Clip Group&gt;"><g class="cls-3"><rect id="_Path_" data-name="&lt;Path&gt;" class="cls-11" y="22.89" width="173.3" height="153.68"/></g></g></g></g><g id="_Clip_Group_4" data-name="&lt;Clip Group&gt;"><g class="cls-12"><g id="_Clip_Group_5" data-name="&lt;Clip Group&gt;"><g class="cls-3"><rect id="_Path_2" data-name="&lt;Path&gt;" class="cls-11" x="35.97" y="4.9" width="150.41" height="156.95"/></g></g></g></g><g id="_Clip_Group_6" data-name="&lt;Clip Group&gt;"><g class="cls-13"><g id="_Clip_Group_7" data-name="&lt;Clip Group&gt;"><g class="cls-3"><rect id="_Path_3" data-name="&lt;Path&gt;" class="cls-11" x="75.2" y="3.27" width="127.52" height="197.82"/></g></g></g></g><g id="_Clip_Group_8" data-name="&lt;Clip Group&gt;"><g class="cls-14"><g id="_Clip_Group_9" data-name="&lt;Clip Group&gt;"><g class="cls-3"><rect id="_Path_4" data-name="&lt;Path&gt;" class="cls-11" x="210.9" y="27.79" width="181.47" height="153.68"/></g></g></g></g><g id="_Clip_Group_10" data-name="&lt;Clip Group&gt;"><g class="cls-15"><g id="_Clip_Group_11" data-name="&lt;Clip Group&gt;"><g class="cls-3"><rect id="_Path_5" data-name="&lt;Path&gt;" class="cls-11" x="202.73" y="3.27" width="152.04" height="163.49"/></g></g></g></g><g id="_Clip_Group_12" data-name="&lt;Clip Group&gt;"><g class="cls-16"><g id="_Clip_Group_13" data-name="&lt;Clip Group&gt;"><g class="cls-3"><rect id="_Path_6" data-name="&lt;Path&gt;" class="cls-11" x="181.47" width="124.25" height="204.36"/></g></g></g></g></svg>