<svg id="Layer_1" xmlns="http://www.w3.org/2000/svg" xmlns:xlink="http://www.w3.org/1999/xlink" viewBox="0 0 440 200" style="max-width:100%"><style>.st0{clip-path:url(#SVGID_2_)}.st1{fill:#e6e7e3}.st2{clip-path:url(#SVGID_4_)}.st3{clip-path:url(#SVGID_6_)}.st4{clip-path:url(#SVGID_8_)}.st5{clip-path:url(#SVGID_10_)}.st6{clip-path:url(#SVGID_12_)}.st7{clip-path:url(#SVGID_14_)}.st8{clip-path:url(#SVGID_16_)}.st9{clip-path:url(#SVGID_18_)}.st10{clip-path:url(#SVGID_20_)}.st11{clip-path:url(#SVGID_22_)}</style><defs><path id="SVGID_1_" d="M-332.4-616.8H756V471.6H-332.4z"/></defs><clipPath id="SVGID_2_"><use xlink:href="#SVGID_1_" overflow="visible"/></clipPath><path class="st0 st1" d="M44 24.6H23v11.9h19.4v12H23v24H9.4V12.7H44v11.9z"/><defs><path id="SVGID_3_" d="M-332.4-616.8H756V471.6H-332.4z"/></defs><clipPath id="SVGID_4_"><use xlink:href="#SVGID_3_" overflow="visible"/></clipPath><g class="st2"><defs><path id="SVGID_5_" d="M49.5 12.7h49.3v59.9H49.5z"/></defs><clipPath id="SVGID_6_"><use xlink:href="#SVGID_5_" overflow="visible"/></clipPath><path class="st3 st1" d="M70.9 12.7c11.1 0 19.5 6 19.5 17.8 0 9-4.9 15-12.3 17.3l20.6 24.7H81.4L63.1 48.9v23.7H49.5V12.7h21.4zm-6.2 26.5c5.2 0 11.3-.4 11.3-7.8s-6.2-7.8-11.3-7.8h-1.6v15.7h1.6z"/></g><defs><path id="SVGID_7_" d="M-332.4-616.8H756V471.6H-332.4z"/></defs><clipPath id="SVGID_8_"><use xlink:href="#SVGID_7_" overflow="visible"/></clipPath><path class="st4 st1" d="M124 11.6c16.6 0 30.1 13.5 30.1 31s-12.9 31-30.1 31c-17.7 0-30.2-13.6-30.2-31.1s13.7-30.9 30.2-30.9zm0 48.8c10.9 0 15.4-8.9 15.4-17.8s-4.8-17.8-15.4-17.8c-10.5 0-15.5 8.9-15.5 17.8s4.3 17.8 15.5 17.8z"/><defs><path id="SVGID_9_" d="M-332.4-616.8H756V471.6H-332.4z"/></defs><clipPath id="SVGID_10_"><use xlink:href="#SVGID_9_" overflow="visible"/></clipPath><path class="st5 st1" d="M172.8 72.5h-13.6V12.7h13.6l23.8 37.1h.1V12.7h13.6v59.9h-13.6l-23.8-37.1h-.1v37z"/><defs><path id="SVGID_11_" d="M-332.4-616.8H756V471.6H-332.4z"/></defs><clipPath id="SVGID_12_"><use xlink:href="#SVGID_11_" overflow="visible"/></clipPath><path class="st6 st1" d="M214.8 12.7h42.1v12h-14.2v47.9H229v-48h-14.2V12.7z"/><defs><path id="SVGID_13_" d="M-332.4-616.8H756V471.6H-332.4z"/></defs><clipPath id="SVGID_14_"><use xlink:href="#SVGID_13_" overflow="visible"/></clipPath><path class="st7 st1" d="M313.9 24.6h-20.6v11.9H313v12h-19.7v12h20.6v12h-34.2V12.7h34.2v11.9z"/><g><defs><path id="SVGID_15_" d="M-332.4-616.8H756V471.6H-332.4z"/></defs><clipPath id="SVGID_16_"><use xlink:href="#SVGID_15_" overflow="visible"/></clipPath><path class="st8 st1" d="M333.4 72.5h-13.6V12.7h13.6l23.8 37.1h.1V12.7H371v59.9h-13.6l-23.8-37.1h-.1v37z"/></g><g><defs><path id="SVGID_17_" d="M-332.4-616.8H756V471.6H-332.4z"/></defs><clipPath id="SVGID_18_"><use xlink:href="#SVGID_17_" overflow="visible"/></clipPath><path class="st9 st1" d="M394.1 12.7c16.4 0 30.2 12.5 30.2 29.9 0 17.5-13.7 30-30.2 30h-17.3V12.7h17.3zm-1.6 47.6c10.1 0 17-7.7 17.1-17.7 0-10-6.9-17.8-17.1-17.8h-2.1v35.5h2.1z"/></g><g><defs><path id="SVGID_19_" d="M-332.4-616.8H756V471.6H-332.4z"/></defs><clipPath id="SVGID_20_"><use xlink:href="#SVGID_19_" overflow="visible"/></clipPath><path class="st10 st1" d="M34.1 137.9H23.3v41H9.5V84.7h13.8v39h10.8v-39h13.8V179H34.1v-41.1zM53.4 179l14.2-94.2h16.9L98.8 179H85.4l-2.6-19.2H69.5L66.9 179H53.4zm23.5-63.6l-.4-2.4h-.8l-.4 2.4-4 29.7h9.5l-3.9-29.7zM102.8 84.7h13.8c6 0 12 1.5 16.7 5.9 4.6 4.4 7.7 11.5 7.7 22.3s-3.1 17.8-7.7 22.2c-4.6 4.4-10.6 6.2-16.7 6.2V179h-13.8V84.7zm13.8 42.5c4.2 0 6.9-.8 8.5-2.9 1.5-2.1 1.9-5.5 1.9-10.8s-.4-9-1.9-11.3-4.2-3.3-8.5-3.3v28.3z"/></g><g><defs><path id="SVGID_21_" d="M-332.4-616.8H756V471.6H-332.4z"/></defs><clipPath id="SVGID_22_"><use xlink:href="#SVGID_21_" overflow="visible"/></clipPath><path class="st11 st1" d="M145.9 84.7h13.8c6 0 12 1.5 16.7 5.9 4.6 4.4 7.7 11.5 7.7 22.3s-3.1 17.8-7.7 22.2c-4.6 4.4-10.6 6.2-16.7 6.2V179h-13.8V84.7zm13.9 42.5c4.2 0 6.9-.8 8.5-2.9 1.5-2.1 1.9-5.5 1.9-10.8s-.4-9-1.9-11.3-4.2-3.3-8.5-3.3v28.3zm46.6-12.3l.4.9h.3l.4-.9 6.9-30.1H228l-14.1 54.1V179H200v-40.1l-14.1-54.1h13.6l6.9 30.1zm70.2 23h-10.8v41H252V84.7h13.8v39h10.8v-39h13.8V179h-13.8v-41.1zm59.3 21.7c-.1 3.8-.9 7.3-2.3 10.3-1.2 2.6-2.9 5-5.5 6.9-2.6 2.1-6 3.2-10.6 3.2s-8.2-1.2-10.8-3.2c-2.6-1.9-4.2-4.4-5.4-6.9-1.4-2.9-2.2-6.4-2.3-10.3v-55.5c.1-3.7.9-7.2 2.3-10.1 1.2-2.6 2.8-5.1 5.4-7.1s6.2-3.2 10.8-3.2 8.1 1.3 10.6 3.2c2.6 1.9 4.4 4.5 5.5 7.1 1.4 2.9 2.2 6.4 2.3 10.1v55.5zm-13.8-55.5c0-2.6-.5-4.4-1.8-5.9-.6-.6-1.7-1-2.8-1-2.4 0-3.6 1.8-4.1 3.5-.4 1-.5 2.2-.5 3.5v55.5c0 2.7.6 4.5 1.9 5.9.6.6 1.5 1 2.7 1 2.4 0 3.6-1.5 4.1-3.5.4-.9.5-2.1.5-3.5v-55.5zm59.1-19.4v74.9c-.1 3.8-.9 7.3-2.3 10.3-1.2 2.6-2.9 5-5.5 6.9-2.6 2.1-6 3.2-10.6 3.2s-8.2-1.2-10.8-3.2c-2.6-1.9-4.2-4.4-5.4-6.9-1.4-2.9-2.2-6.4-2.3-10.3V84.7h13.8v74.9c0 2.7.6 4.5 1.9 5.9.6.6 1.5 1 2.7 1 2.4 0 3.6-1.5 4.1-3.5.4-.9.5-2.1.5-3.5V84.7h13.9zM409.6 179l-7.2-39.7h-3.7V179h-13.8V84.7h13.8c16.5 0 23.6 9.4 23.6 27.2 0 9.4-2.4 17.8-7.7 21.4l8.8 45.6h-13.8zm-10.9-52.6c1.9 0 4.5-.3 6.5-2.1s3.7-5.3 3.7-11.9-1.7-10.3-3.7-12c-2.1-1.8-4.6-1.9-6.5-1.9v27.9z"/></g></svg>