<svg id="Layer_3" data-name="Layer 3" xmlns="http://www.w3.org/2000/svg" xmlns:xlink="http://www.w3.org/1999/xlink" viewBox="0 0 392.37 343.13"><defs><style>.cls-1,.cls-2{fill:none;}.cls-1{clip-rule:evenodd;}.cls-3{clip-path:url(#clip-path);}.cls-4{clip-path:url(#clip-path-2);}.cls-5{fill:#e0e1dc;}.cls-6{clip-path:url(#clip-path-3);}.cls-7{clip-path:url(#clip-path-5);}.cls-8{clip-path:url(#clip-path-7);}.cls-9{clip-path:url(#clip-path-9);}.cls-10{clip-path:url(#clip-path-11);}.cls-11{fill:#e6e7e3;}</style><clipPath id="clip-path" transform="translate(-5.45 -23.33)"><path class="cls-1" d="M91.47,54.4,13.62,77.28,68.43,184.49s3.36,7.23,18.06,7.23c19.63.41,84.08-26.5,84.08-26.5s-73.79,25.49-89.69,16.86S29.14,92.63,30,85.45C32.51,80,91.47,54.4,91.47,54.4"/></clipPath><clipPath id="clip-path-2" transform="translate(-5.45 -23.33)"><rect class="cls-2" x="0" y="0" width="800" height="800"/></clipPath><clipPath id="clip-path-3" transform="translate(-5.45 -23.33)"><path class="cls-1" d="M49.59,118.22l29.26,54.44S82.51,177,92.58,177s31.22-2.8,45.11-7.47,42.44-20.22,45.66-25.82S163.09,36.41,163.09,36.41l-11.9,10s7.72,59.41,6.11,71.23-3.22,15.55-27.65,24.26-36,10-43.41,7.47-36.65-31.11-36.65-31.11"/></clipPath><clipPath id="clip-path-5" transform="translate(-5.45 -23.33)"><path class="cls-1" d="M168.92,34.78c-1.44,0,27.39,134.79,25,140s-9.61,15.32-41.65,25.94-63,10.94-63.44,12.82c0,7.27,53.18-2.19,65.36-5.31s19.22-6.25,27.87-11.88S200,178.56,200,178.56,170.36,34.78,168.92,34.78"/></clipPath><clipPath id="clip-path-7" transform="translate(-5.45 -23.33)"><path class="cls-1" d="M314.73,59.3l74.92,30.43L323.95,191s-4.1,6.87-18.7,5.41c-19.54-1.52-80.73-34.64-80.73-34.64s70.61,32.62,87.31,25.6,60.79-83.92,60.68-91.15c-1.91-5.64-57.78-36.95-57.78-36.95"/></clipPath><clipPath id="clip-path-9" transform="translate(-5.45 -23.33)"><path class="cls-1" d="M352,127.44l-34.78,51.33s-4.09,4-14.09,3-30.72-5.86-44-11.88-40-24.32-42.65-30.21S247.88,34.78,247.88,34.78l10.77,11.09s-13.9,58.41-13.55,70.34S246.67,132,270,143.1s34.73,13.46,42.34,11.71S352,127.44,352,127.44"/></clipPath><clipPath id="clip-path-11" transform="translate(-5.45 -23.33)"><path class="cls-1" d="M241.42,31.51c1.45.14-41.68,131.54-39.82,137s8,16.21,39.08,30,62.08,17.16,62.32,19.07c-.76,7.24-53.15-7.46-65-11.79s-18.64-8.14-26.73-14.6-16.13-19.53-16.13-19.53S240,31.36,241.42,31.51"/></clipPath></defs><title>front-end-happy-hour</title><g class="cls-3"><g class="cls-4"><rect class="cls-5" y="22.89" width="173.3" height="153.68"/></g></g><g class="cls-6"><g class="cls-4"><rect class="cls-5" x="35.97" y="4.9" width="150.41" height="156.95"/></g></g><g class="cls-7"><g class="cls-4"><rect class="cls-5" x="75.2" y="3.27" width="127.52" height="197.82"/></g></g><g class="cls-8"><g class="cls-4"><rect class="cls-5" x="210.9" y="27.79" width="181.47" height="153.68"/></g></g><g class="cls-9"><g class="cls-4"><rect class="cls-5" x="202.73" y="3.27" width="152.04" height="163.49"/></g></g><g class="cls-10"><g class="cls-4"><rect class="cls-5" x="181.47" width="124.25" height="204.36"/></g></g><path class="cls-11" d="M326,283.9v-24h1.42c6.87,0,11.52,5.25,11.52,12s-4.71,12-11.52,12Zm-9.22-32.22v40.46h11.72c11.13,0,20.4-8.44,20.4-20.25s-9.32-20.21-20.4-20.21ZM285.52,267h.1l16.08,25.11h9.22V251.68h-9.22v25.11h-.1l-16.09-25.11H276.3v40.46h9.22ZM271,251.68H247.86v40.46H271V284H257.08V275.9h13.34v-8.09H257.08v-8H271Zm-68.32,8.09h9.61v32.37h9.22V259.77h9.61v-8.09H202.69ZM173.94,267h.1l16.09,25.11h9.22V251.68h-9.22v25.11H190l-16.09-25.11h-9.22v40.46h9.22Zm-44.09,4.86c0-6,3.33-12.06,10.45-12.06s10.4,6,10.4,12.06-3,12.06-10.4,12.06C132.74,283.95,129.85,277.92,129.85,271.88Zm-10,0c0,11.82,8.44,21,20.4,21,11.62,0,20.35-9.17,20.35-21s-9.12-20.94-20.35-20.94A20.6,20.6,0,0,0,119.9,271.88Zm-24.08-2.26V259h1.08c3.48,0,7.65.25,7.65,5.3s-4.17,5.3-7.65,5.3Zm-9.22-17.95v40.46h9.22v-16l12.36,16h11.72L106,275.41c5-1.57,8.29-5.64,8.29-11.72,0-7.94-5.69-12-13.19-12Zm-4.42,0H58.78v40.46H68V275.9H81.1v-8.09H68v-8H82.18Z" transform="translate(-5.45 -23.33)"/><path class="cls-11" d="M323.15,330.24a6.5,6.5,0,0,0,4.42-1.39c1.39-1.21,2.51-3.55,2.51-8.06s-1.13-6.93-2.51-8.15a6.39,6.39,0,0,0-4.42-1.3Zm7.37,35.53-4.85-26.86h-2.51v26.86h-9.36V302.08h9.36c11.18,0,15.94,6.33,15.94,18.37,0,6.33-1.65,12-5.2,14.47l6,30.85Zm-22.44-63.69v50.61a17.36,17.36,0,0,1-1.56,6.93,11.92,11.92,0,0,1-3.73,4.68,11.13,11.13,0,0,1-7.19,2.17,11.39,11.39,0,0,1-7.28-2.17,11.67,11.67,0,0,1-3.64-4.68,17.34,17.34,0,0,1-1.56-6.93V302.08h9.36v50.61a5.52,5.52,0,0,0,1.3,4,2.48,2.48,0,0,0,1.82.69,2.74,2.74,0,0,0,2.77-2.34,6.06,6.06,0,0,0,.35-2.34V302.08Zm-39.43,13.08a5.78,5.78,0,0,0-1.21-4,2.7,2.7,0,0,0-1.91-.69,2.9,2.9,0,0,0-2.77,2.34,6.64,6.64,0,0,0-.35,2.34v37.52a5.52,5.52,0,0,0,1.3,4,2.48,2.48,0,0,0,1.82.69A2.74,2.74,0,0,0,268.3,355a6,6,0,0,0,.35-2.34ZM278,352.69a17.36,17.36,0,0,1-1.56,6.93,11.92,11.92,0,0,1-3.73,4.68,11.13,11.13,0,0,1-7.19,2.17,11.39,11.39,0,0,1-7.28-2.17,11.69,11.69,0,0,1-3.64-4.68,17.36,17.36,0,0,1-1.56-6.93V315.17a17.28,17.28,0,0,1,1.56-6.85,11,11,0,0,1,10.92-6.93,11.65,11.65,0,0,1,7.19,2.17,12.17,12.17,0,0,1,3.73,4.77,17.28,17.28,0,0,1,1.56,6.85ZM238.49,338h-7.28v27.73h-9.36V302.08h9.36v26.34h7.28V302.08h9.36v63.69h-9.36Zm-46.36-15.6.26.61h.17l.26-.61,4.68-20.36h9.19l-9.53,36.57v27.12h-9.36V338.65l-9.53-36.57h9.19Zm-31,8.32c2.86,0,4.68-.52,5.72-2s1.3-3.73,1.3-7.28-.26-6.07-1.3-7.63-2.86-2.25-5.72-2.25Zm-9.36-28.68h9.36c4.07,0,8.15,1,11.27,4s5.2,7.8,5.2,15.08-2.08,12-5.2,15a16.11,16.11,0,0,1-11.27,4.16v25.48h-9.36Zm-20,28.68c2.86,0,4.68-.52,5.72-2s1.3-3.73,1.3-7.28-.26-6.07-1.3-7.63-2.86-2.25-5.72-2.25Zm-9.36-28.68h9.36c4.07,0,8.15,1,11.27,4s5.2,7.8,5.2,15.08-2.08,12-5.2,15a16.11,16.11,0,0,1-11.27,4.16v25.48h-9.36Zm-18,20.71-.26-1.65h-.52l-.26,1.65-2.69,20.1h6.41Zm-15.86,43,9.62-63.69h11.44l9.62,63.69h-9.1l-1.73-13h-9l-1.73,13ZM75.95,338H68.67v27.73H59.31V302.08h9.36v26.34h7.28V302.08H85.3v63.69H75.95Z" transform="translate(-5.45 -23.33)"/></svg>