<?xml version="1.0" encoding="utf-8"?>
<!-- Generator: Adobe Illustrator 19.0.0, SVG Export Plug-In . SVG Version: 6.00 Build 0)  -->
<svg version="1.1" id="Layer_1" xmlns="http://www.w3.org/2000/svg" xmlns:xlink="http://www.w3.org/1999/xlink" x="0px" y="0px"
	 viewBox="0 0 240 40" style="enable-background:new 0 0 240 40; max-width: 100%;" xml:space="preserve">
<style type="text/css">
	.st0{fill:#E2E3E1;}
</style>
<g>
	<g>
		<path class="st0" d="M18.5,8.1l-10,0v7.5h11.2v0.6H8.5v16.5H5.1l0-25.1h13.4V8.1z"/>
		<path class="st0" d="M20.1,22.9c0,0,0.1,0,0.1,0c0,0,0.1,0,0.1,0c0,0,0.1,0,0.1,0c0.6,0,1,0.1,1.5,0.3c0.4,0.2,0.8,0.5,1,1
			c0.1,0.2,0.1,0.3,0.2,0.5c0,0.2,0.1,0.4,0.1,0.5c0,0.1,0,0.2,0,0.3c0,0.1,0,0.2-0.1,0.3c0,0.1-0.1,0.2-0.1,0.3
			c0,0.1-0.1,0.2-0.2,0.3c-0.2,0.4-0.5,0.6-0.8,0.8c-0.3,0.1-0.6,0.3-1,0.4c-0.1,0-0.2,0-0.3,0c-0.1,0-0.1,0-0.2,0.1l-0.4-0.1
			c0.1,0,0.3-0.1,0.4-0.1c0.1,0,0.3-0.1,0.4-0.1c0.4-0.1,0.7-0.3,1-0.5c0.3-0.2,0.5-0.5,0.7-0.9c0-0.1,0.1-0.3,0.1-0.4
			c0-0.1,0-0.3,0-0.4c0-0.3-0.1-0.5-0.2-0.8c-0.1-0.3-0.3-0.5-0.5-0.7c-0.2-0.2-0.5-0.4-0.8-0.5c-0.3-0.1-0.6-0.1-0.9-0.1
			c0,0-0.1,0-0.1,0c0,0-0.1,0-0.1,0c0,0-0.1,0-0.1,0c0,0-0.1,0-0.1,0c-0.1,0-0.3,0-0.4,0.1c-0.2,0.1-0.3,0.1-0.5,0.2
			c-0.2,0.1-0.5,0.3-0.7,0.5c-0.2,0.2-0.4,0.4-0.5,0.6c-0.1,0.1-0.1,0.2-0.2,0.3c0,0.1-0.1,0.2-0.1,0.3v7.5h-2.3v-9.5l2.4,0v1.2
			c0.2-0.2,0.4-0.4,0.6-0.5c0.2-0.1,0.3-0.3,0.5-0.4c0.2-0.1,0.3-0.2,0.5-0.3c0.2-0.1,0.4-0.1,0.7-0.1C20,22.9,20,22.9,20.1,22.9z"
			/>
		<path class="st0" d="M28.4,22.8c0.1,0,0.3,0,0.4,0c0.7,0,1.4,0.1,2,0.3c0.6,0.2,1.2,0.6,1.7,1c0.5,0.6,0.8,1.2,1.1,1.8
			c0.2,0.6,0.4,1.3,0.4,2.1c0,1-0.3,1.9-0.8,2.7c-0.6,0.7-1.3,1.3-2.2,1.6c-0.3,0.1-0.6,0.2-0.9,0.2s-0.6,0.1-0.9,0.1
			c-0.5,0-1-0.1-1.5-0.2c-0.5-0.1-1-0.3-1.4-0.6c-0.7-0.4-1.3-1-1.7-1.8s-0.6-1.5-0.6-2.4c0-0.1,0-0.1,0-0.2s0-0.1,0-0.2
			c0,0,0-0.1,0-0.2c0-0.1,0-0.1,0-0.2c0.2-1,0.7-1.8,1.4-2.6c0.7-0.7,1.6-1.2,2.6-1.4C28.1,22.8,28.3,22.8,28.4,22.8z M30.9,23.5
			c-0.5-0.2-1.1-0.3-1.6-0.3c-0.1,0-0.1,0-0.2,0c-0.1,0-0.1,0-0.2,0c-0.4,0-0.9,0.2-1.3,0.3c-0.4,0.2-0.8,0.4-1.1,0.7
			c-0.1,0.5-0.2,1-0.3,1.5c-0.1,0.5-0.1,1-0.1,1.5c0,0.7,0,1.4,0.1,2.1s0.2,1.4,0.3,2c0.1,0.3,0.4,0.6,0.7,0.7
			c0.3,0.2,0.7,0.2,1.1,0.3c0.1,0,0.2,0,0.3,0c0.1,0,0.2,0,0.3,0c0,0,0,0,0.1,0c0,0,0,0,0.1,0c0.8,0,1.6-0.2,2.3-0.7s1.2-1,1.7-1.7
			c0.1-0.3,0.2-0.7,0.3-1c0.1-0.4,0.1-0.7,0.1-1.1c0,0,0-0.1,0-0.2c0-0.1,0-0.1,0-0.2c0-0.5-0.2-1-0.3-1.5c-0.2-0.5-0.5-0.9-0.8-1.3
			C31.9,24,31.5,23.7,30.9,23.5z"/>
		<path class="st0" d="M40.3,22.9c0.1,0,0.3,0,0.4,0c0.1,0,0.1,0,0.2,0c0.1,0,0.1,0,0.2,0c0.8,0.1,1.6,0.3,2.3,0.6
			c0.7,0.3,1,0.7,1,1.1v8h-2v-8c0-0.5-0.2-0.8-0.6-1c-0.4-0.2-0.8-0.4-1.2-0.4c-0.1,0-0.1,0-0.2,0c-0.1,0-0.1,0-0.2,0
			c0,0-0.1,0-0.1,0c0,0-0.1,0-0.1,0c-0.1,0-0.1,0-0.2,0c-0.1,0-0.1,0-0.2,0c-0.5,0.1-1,0.3-1.4,0.6c-0.4,0.3-0.8,0.6-0.9,0.9
			c0,0.1-0.1,0.2-0.1,0.2c0,0.1,0,0.2,0,0.2v7.5h-2v-9.5h1.9v1.4c0,0,0,0,0.1-0.1c0,0,0,0,0.1-0.1c0.2-0.3,0.6-0.6,1-0.9
			c0.5-0.3,1.1-0.5,1.8-0.6C40,22.9,40.1,22.9,40.3,22.9z"/>
		<path class="st0" d="M49.1,19.7h2.3v0.4h-2.3v12.5H47V20.1h-1.8v-0.4H47v-7.6l2.2-0.8V19.7z"/>
		<path class="st0" d="M64.6,7.6c0.9,0,1.9,0,2.9,0c1,0,1.9,0,2.9,0c0.9,0,1.7,0,2.5,0c0.7,0,1.6,0,2.4,0V8c-2.4,0-4.3,0-5.7,0
			c-0.8,0-1.6,0-2.3,0c-0.8,0-1.4,0-2,0v7.5h11.4l0,0.5H65.3v16h10.4v0.6l-13.5,0l0-25.1C62.8,7.6,63.7,7.6,64.6,7.6z"/>
		<path class="st0" d="M82.6,22.9c0.1,0,0.3,0,0.4,0c0.1,0,0.1,0,0.2,0c0.1,0,0.1,0,0.2,0c0.8,0.1,1.6,0.3,2.3,0.6
			c0.7,0.3,1,0.7,1,1.1v8h-2v-8c0-0.5-0.2-0.8-0.6-1c-0.4-0.2-0.8-0.4-1.2-0.4c-0.1,0-0.1,0-0.2,0c-0.1,0-0.1,0-0.2,0
			c0,0-0.1,0-0.1,0c0,0-0.1,0-0.1,0c-0.1,0-0.1,0-0.2,0c-0.1,0-0.1,0-0.2,0c-0.5,0.1-1,0.3-1.4,0.6c-0.4,0.3-0.8,0.6-0.9,0.9
			c0,0.1-0.1,0.2-0.1,0.2c0,0.1,0,0.2,0,0.2v7.5h-2v-9.5h1.9v1.4c0,0,0,0,0.1-0.1c0,0,0,0,0.1-0.1c0.2-0.3,0.6-0.6,1-0.9
			c0.5-0.3,1.1-0.5,1.8-0.6C82.3,22.9,82.4,22.9,82.6,22.9z"/>
		<path class="st0" d="M97.3,7.7v24.8h-2c-0.1-0.1-0.1-0.2-0.1-0.3c0-0.1,0-0.1,0-0.2c0,0,0-0.1,0-0.1c0,0,0,0,0-0.1
			c0,0,0-0.1,0-0.1c0,0,0,0,0-0.1c-0.5,0.3-1,0.5-1.5,0.7c-0.5,0.2-1.1,0.3-1.6,0.3c-0.2,0-0.5,0-0.7-0.1c-0.3,0-0.5-0.1-0.8-0.2
			c-0.5-0.1-0.9-0.4-1.2-0.8c-0.4-0.4-0.7-0.8-1-1.2c-0.1-0.1-0.1-0.2-0.2-0.3s-0.1-0.2-0.1-0.3c-0.1-0.3-0.2-0.6-0.2-0.9
			c0-0.3-0.1-0.6-0.1-0.9c0-0.6,0.1-1.3,0.3-1.9c0.2-0.6,0.5-1.2,0.9-1.6c0.5-0.5,1-0.9,1.6-1.2s1.2-0.4,1.9-0.4
			c0.2,0,0.4,0,0.6,0.1s0.4,0.1,0.6,0.2c0.1,0.1,0.2,0.1,0.3,0.2c0.1,0,0.2,0.1,0.3,0.1c0,0,0,0,0.1,0c0,0,0,0,0.1,0
			c0.1,0.1,0.2,0.1,0.4,0.2s0.3,0.2,0.5,0.3V7.7H97.3z M94.7,24.2c-0.2-0.2-0.4-0.3-0.7-0.4l0,0c-0.1,0-0.2-0.1-0.2-0.1
			c-0.1,0-0.2-0.1-0.2-0.1c-0.2-0.1-0.4-0.1-0.6-0.2s-0.4-0.1-0.7-0.1c-0.5,0-0.9,0.1-1.4,0.3c-0.5,0.2-0.9,0.4-1.2,0.8
			c-0.5,0.5-0.9,1-1.1,1.7c-0.2,0.7-0.3,1.4-0.3,2.1c0,0.3,0,0.5,0.1,0.8c0,0.3,0.1,0.5,0.1,0.8c0,0,0,0.1,0.1,0.1c0,0,0,0.1,0,0.1
			c0.3,0.6,0.7,1.1,1.2,1.5c0.5,0.5,1,0.7,1.6,0.8c0.1,0,0.1,0,0.2,0c0.1,0,0.1,0,0.2,0c0.1,0,0.1,0,0.2,0c0.1,0,0.1,0,0.2,0
			c0.6,0,1.2-0.1,1.7-0.4s1-0.6,1.4-1v-6C95,24.5,94.9,24.3,94.7,24.2z"/>
		<path class="st0" d="M111.5,16.8h13.9V7.7h0.5v25l-0.5,0V17.2h-13.9v15.3h-3.1V7.7h3.1V16.8z"/>
		<path class="st0" d="M134.1,32c-0.1,0-0.1,0.1-0.2,0.1s-0.1,0.1-0.2,0.1c-0.1,0-0.1,0-0.2,0.1c-0.1,0-0.1,0-0.2,0.1
			c-0.2,0.1-0.5,0.1-0.7,0.2c-0.2,0-0.5,0.1-0.7,0.1s-0.5,0-0.7-0.1s-0.5-0.1-0.7-0.2c-0.6-0.1-1.1-0.5-1.6-0.9
			c-0.5-0.5-0.8-1-1-1.5c0,0,0,0-0.1-0.1c0,0,0,0,0-0.1c-0.1-0.2-0.1-0.5-0.2-0.7c-0.1-0.2-0.1-0.5-0.1-0.7c0-0.1,0-0.2,0-0.4
			c0-0.1,0-0.2,0-0.4c0-0.6,0.1-1.2,0.3-1.8c0.2-0.6,0.6-1.1,1-1.5c0.5-0.5,1-0.9,1.6-1.1c0.6-0.3,1.1-0.4,1.7-0.4
			c0.1,0,0.2,0,0.4,0c0.1,0,0.3,0,0.4,0.1c0.1,0,0.2,0.1,0.4,0.1c0.1,0,0.3,0.1,0.4,0.1c0,0,0.1,0,0.1,0.1c0,0,0.1,0,0.1,0.1
			c0.1,0,0.2,0.1,0.3,0.1c0.1,0,0.2,0.1,0.3,0.2c0,0,0.1,0.1,0.1,0.1c0,0,0.1,0.1,0.1,0.1c0,0,0.1-0.1,0.1-0.2c0-0.1,0-0.1,0.1-0.2
			c0-0.1,0-0.1,0.1-0.2s0.1-0.2,0.1-0.2h1.7v9.4h-2c0-0.1,0-0.2,0-0.3c0,0,0-0.1,0-0.2s0-0.2,0-0.3c0,0,0,0,0-0.1c0,0,0,0,0-0.1
			C134.5,31.8,134.2,32,134.1,32z M132,32.4c0.1,0,0.1,0,0.2,0c0.3,0,0.7-0.1,1-0.2s0.6-0.3,0.9-0.4c0.1,0,0.2-0.1,0.3-0.2
			c0.1-0.1,0.2-0.2,0.2-0.3c0-0.1,0-0.1,0.1-0.2c0-0.1,0-0.1,0-0.2l0-6.4c0,0,0,0,0-0.1c0,0,0,0,0-0.1c-0.1-0.3-0.3-0.5-0.4-0.6
			s-0.3-0.2-0.6-0.3c-0.1,0-0.2-0.1-0.4-0.1c-0.1,0-0.3-0.1-0.4-0.1c-0.2-0.1-0.4-0.1-0.6-0.2c-0.2,0-0.4-0.1-0.6-0.1
			c-0.2,0-0.5,0-0.7,0.1c-0.2,0.1-0.4,0.1-0.6,0.2c-0.1,0.1-0.3,0.2-0.5,0.3s-0.3,0.2-0.5,0.3c-0.7,0.5-1.2,1-1.5,1.7
			c-0.3,0.7-0.5,1.4-0.5,2.1c0,0.3,0,0.7,0.1,1c0.1,0.3,0.2,0.7,0.3,1c0.3,0.7,0.8,1.3,1.5,1.8c0.7,0.5,1.4,0.7,2.2,0.8
			c0,0,0,0,0.1,0s0,0,0.1,0C131.9,32.4,131.9,32.4,132,32.4z"/>
		<path class="st0" d="M142.7,22.9c0.2,0,0.4,0,0.6,0c0.6,0,1.2,0.1,1.7,0.3s1,0.5,1.5,0.9c0.5,0.5,0.9,1.1,1.2,1.7s0.4,1.3,0.4,2
			c0,0,0,0.1,0,0.1s0,0.1,0,0.1c0,0,0,0.1,0,0.1c0,0,0,0.1,0,0.1c0,0,0,0,0,0.1s0,0,0,0.1c0,0.9-0.4,1.8-0.9,2.6
			c-0.6,0.8-1.3,1.4-2.2,1.6c-0.2,0-0.4,0.1-0.6,0.1c-0.2,0-0.4,0.1-0.6,0.1c-0.6,0-1.1-0.1-1.6-0.2s-1-0.4-1.5-0.6v6.8h-2.2V23.2
			h2.1c0,0,0,0.1,0,0.1c0,0,0,0,0,0.1c0,0,0,0,0,0.1c0,0,0,0.1,0,0.1s0,0.1,0,0.1c0,0.1,0,0.1,0,0.2s0,0.1,0.1,0.1
			c0.1,0,0.1-0.1,0.2-0.2c0.1-0.1,0.2-0.1,0.3-0.2c0.2-0.1,0.4-0.2,0.6-0.3s0.4-0.2,0.6-0.2C142.3,22.9,142.5,22.9,142.7,22.9z
			 M145.1,23.5c-0.4-0.2-0.9-0.3-1.4-0.3c0,0-0.1,0-0.1,0c0,0-0.1,0-0.1,0c0,0,0,0-0.1,0s0,0-0.1,0c0,0,0,0-0.1,0
			c-0.1,0-0.2,0-0.3,0c-0.1,0-0.2,0-0.3,0c-0.6,0.1-1.1,0.2-1.5,0.5c-0.5,0.3-0.7,0.6-0.7,1.2V31c0,0.2,0.1,0.4,0.3,0.6
			c0.2,0.2,0.5,0.3,0.7,0.4c0,0,0.1,0,0.1,0.1c0,0,0.1,0,0.1,0.1c0.3,0.1,0.6,0.1,0.9,0.2c0.3,0,0.6,0.1,0.9,0.1c0.3,0,0.7,0,1-0.1
			s0.6-0.2,0.8-0.3c0.6-0.3,1-0.7,1.3-1.2c0.3-0.5,0.6-1.1,0.8-1.7c0-0.2,0.1-0.3,0.1-0.5c0-0.2,0.1-0.3,0.1-0.5c0,0,0-0.1,0-0.1
			s0-0.1,0-0.1c0,0,0-0.1,0-0.1s0-0.1,0-0.1c0-0.7-0.2-1.3-0.4-1.8c-0.3-0.6-0.6-1.1-1-1.5C145.9,24,145.5,23.7,145.1,23.5z"/>
		<path class="st0" d="M153.8,22.9c0.2,0,0.4,0,0.6,0c0.6,0,1.2,0.1,1.7,0.3s1,0.5,1.5,0.9c0.5,0.5,0.9,1.1,1.2,1.7s0.4,1.3,0.4,2
			c0,0,0,0.1,0,0.1s0,0.1,0,0.1c0,0,0,0.1,0,0.1c0,0,0,0.1,0,0.1c0,0,0,0,0,0.1s0,0,0,0.1c0,0.9-0.4,1.8-0.9,2.6
			c-0.6,0.8-1.3,1.4-2.2,1.6c-0.2,0-0.4,0.1-0.6,0.1c-0.2,0-0.4,0.1-0.6,0.1c-0.6,0-1.1-0.1-1.6-0.2s-1-0.4-1.5-0.6v6.8h-2.2V23.2
			h2.1c0,0,0,0.1,0,0.1c0,0,0,0,0,0.1c0,0,0,0,0,0.1c0,0,0,0.1,0,0.1s0,0.1,0,0.1c0,0.1,0,0.1,0,0.2s0,0.1,0.1,0.1
			c0.1,0,0.1-0.1,0.2-0.2c0.1-0.1,0.2-0.1,0.3-0.2c0.2-0.1,0.4-0.2,0.6-0.3s0.4-0.2,0.6-0.2C153.3,22.9,153.6,22.9,153.8,22.9z
			 M156.2,23.5c-0.4-0.2-0.9-0.3-1.4-0.3c0,0-0.1,0-0.1,0c0,0-0.1,0-0.1,0c0,0,0,0-0.1,0s0,0-0.1,0c0,0,0,0-0.1,0
			c-0.1,0-0.2,0-0.3,0c-0.1,0-0.2,0-0.3,0c-0.6,0.1-1.1,0.2-1.5,0.5c-0.5,0.3-0.7,0.6-0.7,1.2V31c0,0.2,0.1,0.4,0.3,0.6
			c0.2,0.2,0.5,0.3,0.7,0.4c0,0,0.1,0,0.1,0.1c0,0,0.1,0,0.1,0.1c0.3,0.1,0.6,0.1,0.9,0.2c0.3,0,0.6,0.1,0.9,0.1c0.3,0,0.7,0,1-0.1
			s0.6-0.2,0.8-0.3c0.6-0.3,1-0.7,1.3-1.2c0.3-0.5,0.6-1.1,0.8-1.7c0-0.2,0.1-0.3,0.1-0.5c0-0.2,0.1-0.3,0.1-0.5c0,0,0-0.1,0-0.1
			s0-0.1,0-0.1c0,0,0-0.1,0-0.1s0-0.1,0-0.1c0-0.7-0.2-1.3-0.4-1.8c-0.3-0.6-0.6-1.1-1-1.5C157,24,156.6,23.7,156.2,23.5z"/>
		<path class="st0" d="M167.7,22.9c0.1,0,0.3,0,0.4,0.1c0,0,0.1,0,0.2,0s0.1,0,0.2,0c0.1,0,0.3,0,0.4,0c0.1,0,0.2,0,0.3,0
			c0.1,0,0.2,0,0.3,0l0,8.4c0,0.6,0,1.2-0.1,1.7c0,0.5-0.1,1-0.2,1.5c0,0.2-0.1,0.5-0.1,0.7c-0.1,0.2-0.1,0.5-0.2,0.8
			c-0.4,0.7-0.9,1.3-1.5,1.7c-0.6,0.4-1.3,0.7-2.1,0.7c0.1-0.1,0.2-0.1,0.3-0.2c0.1,0,0.2-0.1,0.3-0.1c0.1,0,0.1-0.1,0.2-0.1
			c0.1,0,0.2-0.1,0.2-0.2c0.5-0.4,0.8-1,0.9-1.7c0.1-0.7,0.2-1.5,0.2-2.3c0-0.1,0-0.2,0-0.3s0-0.2,0-0.3c0-0.1,0-0.1,0-0.2
			s0-0.1,0-0.1c0-0.2,0-0.3,0-0.5s0-0.3,0-0.5c0-0.1,0-0.3,0-0.4c0-0.1,0-0.3,0-0.4c-0.3,0.4-0.8,0.7-1.4,1s-1.4,0.4-2.1,0.4
			c0,0-0.1,0-0.1,0c0,0,0,0-0.1,0c-0.3,0-0.7,0-1-0.1c-0.3-0.1-0.6-0.2-0.9-0.3c-0.1-0.1-0.3-0.2-0.4-0.3c-0.1-0.1-0.3-0.3-0.4-0.4
			c-0.1-0.1-0.2-0.3-0.3-0.4s-0.1-0.2-0.1-0.3v-7.9h2.2c0,2.3,0,4.1,0,5.5c0,0.5,0,1,0,1.6c0,0.5,0,1,0,1.4c0,0.2,0.1,0.4,0.3,0.6
			c0.2,0.1,0.4,0.2,0.6,0.3c0,0,0.1,0,0.1,0.1c0,0,0.1,0,0.1,0c0.1,0,0.1,0,0.2,0c0.1,0,0.1,0,0.2,0c0.1,0,0.3,0,0.4,0
			c0.1,0,0.3-0.1,0.4-0.1c0.4-0.1,0.8-0.3,1.2-0.6c0.4-0.3,0.7-0.5,0.9-0.8c0,0,0,0,0.1-0.1c0,0,0,0,0-0.1l0-7.8
			C167.4,22.9,167.5,22.9,167.7,22.9z"/>
		<path class="st0" d="M184.4,16.8h13.9V7.7h0.5v25l-0.5,0V17.2h-13.9v15.3h-3.1V7.7h3.1V16.8z"/>
		<path class="st0" d="M204.7,22.8c0.1,0,0.3,0,0.4,0c0.7,0,1.3,0.1,2,0.3c0.6,0.2,1.2,0.6,1.7,1c0.5,0.6,0.8,1.2,1.1,1.8
			c0.2,0.6,0.4,1.3,0.4,2.1c0,1-0.3,1.9-0.8,2.7s-1.3,1.3-2.2,1.6c-0.3,0.1-0.6,0.2-0.9,0.2c-0.3,0.1-0.6,0.1-0.9,0.1
			c-0.5,0-1-0.1-1.5-0.2c-0.5-0.1-1-0.3-1.4-0.6c-0.7-0.4-1.3-1-1.7-1.8c-0.4-0.7-0.6-1.5-0.6-2.4c0-0.1,0-0.1,0-0.2s0-0.1,0-0.2
			c0,0,0-0.1,0-0.2c0-0.1,0-0.1,0-0.2c0.2-1,0.7-1.8,1.4-2.6c0.7-0.7,1.6-1.2,2.6-1.4C204.4,22.8,204.6,22.8,204.7,22.8z
			 M207.2,23.5c-0.5-0.2-1.1-0.3-1.6-0.3c-0.1,0-0.1,0-0.2,0s-0.1,0-0.2,0c-0.4,0-0.9,0.2-1.3,0.3c-0.4,0.2-0.8,0.4-1.1,0.7
			c-0.1,0.5-0.2,1-0.3,1.5c-0.1,0.5-0.1,1-0.1,1.5c0,0.7,0,1.4,0.1,2.1s0.2,1.4,0.3,2c0.1,0.3,0.4,0.6,0.7,0.7
			c0.3,0.2,0.7,0.2,1.1,0.3c0.1,0,0.2,0,0.3,0c0.1,0,0.2,0,0.3,0c0,0,0,0,0.1,0c0,0,0,0,0.1,0c0.8,0,1.6-0.2,2.3-0.7
			c0.7-0.4,1.2-1,1.7-1.7c0.1-0.3,0.2-0.7,0.3-1c0.1-0.4,0.1-0.7,0.1-1.1c0,0,0-0.1,0-0.2c0-0.1,0-0.1,0-0.2c0-0.5-0.2-1-0.3-1.5
			c-0.2-0.5-0.4-0.9-0.8-1.3C208.2,24,207.8,23.7,207.2,23.5z"/>
		<path class="st0" d="M213.5,22.9v8.1c0,0.6,0.1,0.9,0.4,1.2c0.2,0.2,0.9,0.3,2.1,0.3c0.1,0,0.3,0,0.4,0c0.1,0,0.3,0,0.4-0.1
			c0.5-0.1,0.9-0.3,1.3-0.6c0.4-0.3,0.6-0.7,0.6-1.2v-7.6h1.8v9.7c0,0-0.1,0-0.1,0c0,0-0.1,0-0.1,0c-0.1,0-0.2,0-0.3,0s-0.2,0-0.3,0
			c-0.3,0-0.6,0-0.9,0v-1.3c0,0.1-0.1,0.2-0.2,0.3c-0.1,0.1-0.2,0.2-0.3,0.3c-0.2,0.2-0.5,0.4-0.9,0.5c-0.4,0.2-0.8,0.2-1.4,0.3
			c0,0-0.1,0-0.2,0s-0.2,0-0.3,0c-0.1,0-0.2,0-0.3,0s-0.2,0-0.3,0c-0.2,0-0.4,0-0.6,0c-0.2,0-0.4,0-0.6-0.1c-0.6,0-1.2-0.2-1.7-0.4
			c-0.5-0.2-0.8-0.6-0.8-1.2v-8.1H213.5z"/>
		<path class="st0" d="M226.6,22.9c0,0,0.1,0,0.1,0c0,0,0.1,0,0.1,0c0,0,0.1,0,0.1,0c0.6,0,1,0.1,1.5,0.3c0.4,0.2,0.8,0.5,1,1
			c0.1,0.2,0.1,0.3,0.2,0.5c0,0.2,0.1,0.4,0.1,0.5c0,0.1,0,0.2,0,0.3c0,0.1,0,0.2-0.1,0.3c0,0.1-0.1,0.2-0.1,0.3
			c0,0.1-0.1,0.2-0.2,0.3c-0.2,0.4-0.5,0.6-0.8,0.8c-0.3,0.1-0.6,0.3-1,0.4c-0.1,0-0.2,0-0.3,0c-0.1,0-0.1,0-0.2,0.1l-0.4-0.1
			c0.1,0,0.3-0.1,0.4-0.1s0.3-0.1,0.4-0.1c0.4-0.1,0.7-0.3,1-0.5c0.3-0.2,0.5-0.5,0.7-0.9c0-0.1,0.1-0.3,0.1-0.4c0-0.1,0-0.3,0-0.4
			c0-0.3-0.1-0.5-0.2-0.8s-0.3-0.5-0.5-0.7c-0.2-0.2-0.5-0.4-0.8-0.5c-0.3-0.1-0.6-0.1-0.9-0.1c0,0-0.1,0-0.1,0c0,0-0.1,0-0.1,0
			c0,0-0.1,0-0.1,0s-0.1,0-0.1,0c-0.1,0-0.3,0-0.4,0.1c-0.2,0.1-0.3,0.1-0.5,0.2c-0.2,0.1-0.5,0.3-0.7,0.5c-0.2,0.2-0.4,0.4-0.5,0.6
			c-0.1,0.1-0.1,0.2-0.2,0.3c0,0.1-0.1,0.2-0.1,0.3v7.5h-2.3v-9.5l2.4,0v1.2c0.2-0.2,0.4-0.4,0.6-0.5c0.2-0.1,0.3-0.3,0.4-0.4
			c0.2-0.1,0.3-0.2,0.5-0.3c0.2-0.1,0.4-0.1,0.7-0.1C226.5,22.9,226.5,22.9,226.6,22.9z"/>
	</g>
</g>
</svg>
