<svg id="Layer_1" xmlns="https://www.w3.org/2000/svg" viewBox="0 0 400 240" style="max-width:100%"><style>.st0{fill:#e2e3e1}</style><g id="Layer_2"><path id="XMLID_2_" class="st0" d="M85.3 42.6L5.1 67l56.4 114.1s3.5 7.7 18.6 7.7c20.2.4 86.5-28.2 86.5-28.2s-75.9 27.1-92.3 17.9S21 83.3 21.9 75.7c2.7-5.8 63.4-33.1 63.4-33.1z"/><path id="XMLID_1_" class="st0" d="M41.3 110.7L71.6 169s3.8 4.7 14.2 4.7 32.4-3 46.8-8 44-21.7 47.3-27.7-21-115-21-115l-12.3 10.7s8 63.7 6.3 76.3-3.3 16.7-28.7 26-37.3 10.7-45 8c-7.5-2.7-37.9-33.3-37.9-33.3z"/><path id="XMLID_3_" class="st0" d="M165 20.3c-1.5 0 28.5 143.8 26 149.3-2.5 5.6-10 16.3-43.3 27.7-33.3 11.3-65.5 11.7-66 13.7 0 7.8 55.3-2.3 68-5.7 12.7-3.3 20-6.7 29-12.7s18.7-19 18.7-19S166.5 20.3 165 20.3z"/></g><g id="Layer_3"><path id="XMLID_6_" class="st0" d="M316.7 47.2l77.2 32.4-67.7 107.8s-4.2 7.3-19.3 5.8c-20.1-1.6-83.2-36.9-83.2-36.9s72.8 34.7 90 27.2 62.7-89.3 62.6-97c-2-5.9-59.6-39.3-59.6-39.3z"/><path id="XMLID_5_" class="st0" d="M353.5 119.4l-36.1 54.9s-4.2 4.3-14.6 3.2c-10.4-1.1-31.9-6.3-45.7-12.7-13.8-6.4-41.6-26-44.3-32.3-2.7-6.3 32.6-112.3 32.6-112.3l11.2 11.9s-14.4 62.5-14.1 75.3 1.6 16.9 25.9 28.8 36.1 14.4 44 12.5c7.8-1.9 41.1-29.3 41.1-29.3z"/><path id="XMLID_4_" class="st0" d="M239.6 17c1.5.2-43 140.1-41.1 145.9s8.3 17.3 40.3 31.9c32 14.7 64 18.3 64.3 20.3-.8 7.7-54.8-8-67.1-12.6-12.3-4.6-19.2-8.7-27.6-15.6-8.3-6.9-16.6-20.8-16.6-20.8S238.1 16.8 239.6 17z"/></g></svg>