<?xml version="1.0" encoding="utf-8"?>
<!-- Generator: Adobe Illustrator 19.0.0, SVG Export Plug-In . SVG Version: 6.00 Build 0)  -->
<svg version="1.1" id="Layer_1" xmlns="http://www.w3.org/2000/svg" xmlns:xlink="http://www.w3.org/1999/xlink" x="0px" y="0px"
	 viewBox="0 0 440 200" style="enable-background:new 0 0 440 200; max-width: 100%;" xml:space="preserve">
<style type="text/css">
	.st0{clip-path:url(#XMLID_2_);}
	.st1{fill:#E6E7E3;}
	.st2{font-family:'LeagueSpartan-Bold';}
	.st3{font-size:72.5619px;}
	.st4{letter-spacing:-1;}
	.st5{font-family:'LeagueGothic-Regular';}
	.st6{font-size:128.1927px;}
</style>
<g id="XMLID_43_">
	<defs>
		<rect id="XMLID_54_" x="-332.4" y="-616.8" width="1088.4" height="1088.4"/>
	</defs>
	<clipPath id="XMLID_2_">
		<use xlink:href="#XMLID_54_"  style="overflow:visible;"/>
	</clipPath>
	<g id="XMLID_44_" class="st0">
		<text transform="matrix(1 0 0 1 5.0002 72.5344)" class="st1 st2 st3">F</text>
	</g>
	<g id="XMLID_45_" class="st0">
		<text transform="matrix(1 0 0 1 45.1496 72.5344)" class="st1 st2 st3">R</text>
	</g>
	<g id="XMLID_46_" class="st0">
		<text transform="matrix(1 0 0 1 92.1467 72.5344)" class="st1 st2 st3">O</text>
	</g>
	<g id="XMLID_47_" class="st0">
		<text transform="matrix(1 0 0 1 154.7912 72.5344)" class="st1 st2 st3">N</text>
	</g>
	<g id="XMLID_48_" class="st0">
		<text transform="matrix(1 0 0 1 214.219 72.5344)" class="st1 st2 st3">T</text>
	</g>
	<g id="XMLID_49_" class="st0">
		<text transform="matrix(1 0 0 1 257.468 72.5344)"><tspan x="0" y="0" class="st1 st2 st3 st4"> </tspan><tspan x="17.8" y="0" class="st1 st2 st3">E</tspan></text>
	</g>
	<g id="XMLID_50_" class="st0">
		<text transform="matrix(1 0 0 1 315.3957 72.5344)" class="st1 st2 st3">N</text>
	</g>
	<g id="XMLID_51_" class="st0">
		<text transform="matrix(1 0 0 1 372.3576 72.5344)" class="st1 st2 st3">D</text>
	</g>
	<g id="XMLID_52_" class="st0">
		<text transform="matrix(1 0 0 1 4.3488 178.9592)"><tspan x="0" y="0" class="st1 st5 st6 st4">HA</tspan><tspan x="93.3" y="0" class="st1 st5 st6">P</tspan></text>
	</g>
	<g id="XMLID_53_" class="st0">
		<text transform="matrix(1 0 0 1 140.8069 178.9592)"><tspan x="-6" y="0" class="st1 st5 st6 st4">PY HOU</tspan><tspan x="238.9" y="0" class="st1 st5 st6">R</tspan></text>
	</g>
</g>
</svg>
