<?xml version="1.0" encoding="utf-8"?>
<!-- Generator: Adobe Illustrator 19.0.0, SVG Export Plug-In . SVG Version: 6.00 Build 0)  -->
<svg version="1.1" id="Layer_1" xmlns="http://www.w3.org/2000/svg" xmlns:xlink="http://www.w3.org/1999/xlink" x="0px" y="0px"
	 viewBox="0 0 440 200" style="enable-background:new 0 0 440 200; max-width:100%;" xml:space="preserve">
<style type="text/css">
	.st0{clip-path:url(#SVGID_2_);}
	.st1{fill:#E6E7E3;}
	.st2{clip-path:url(#SVGID_4_);}
	.st3{clip-path:url(#SVGID_6_);}
	.st4{clip-path:url(#SVGID_8_);}
	.st5{clip-path:url(#SVGID_10_);}
	.st6{clip-path:url(#SVGID_12_);}
	.st7{clip-path:url(#SVGID_14_);}
	.st8{clip-path:url(#SVGID_16_);}
	.st9{clip-path:url(#SVGID_18_);}
	.st10{clip-path:url(#SVGID_20_);}
	.st11{clip-path:url(#SVGID_22_);}
</style>
<g>
	<g>
		<defs>
			<rect id="SVGID_1_" x="-332.4" y="-616.8" width="1088.4" height="1088.4"/>
		</defs>
		<clipPath id="SVGID_2_">
			<use xlink:href="#SVGID_1_"  style="overflow:visible;"/>
		</clipPath>
		<g class="st0">
			<path class="st1" d="M44,24.6H23v11.9h19.4v12H23v24H9.4V12.7H44V24.6z"/>
		</g>
	</g>
	<g>
		<defs>
			<rect id="SVGID_3_" x="-332.4" y="-616.8" width="1088.4" height="1088.4"/>
		</defs>
		<clipPath id="SVGID_4_">
			<use xlink:href="#SVGID_3_"  style="overflow:visible;"/>
		</clipPath>
		<g class="st2">
			<defs>
				<rect id="SVGID_5_" x="49.5" y="12.7" width="49.3" height="59.9"/>
			</defs>
			<clipPath id="SVGID_6_">
				<use xlink:href="#SVGID_5_"  style="overflow:visible;"/>
			</clipPath>
			<g class="st3">
				<path class="st1" d="M70.9,12.7c11.1,0,19.5,6,19.5,17.8c0,9-4.9,15-12.3,17.3l20.6,24.7H81.4L63.1,48.9v23.7H49.5V12.7H70.9z
					 M64.7,39.2c5.2,0,11.3-0.4,11.3-7.8s-6.2-7.8-11.3-7.8h-1.6v15.7H64.7z"/>
			</g>
		</g>
	</g>
	<g>
		<defs>
			<rect id="SVGID_7_" x="-332.4" y="-616.8" width="1088.4" height="1088.4"/>
		</defs>
		<clipPath id="SVGID_8_">
			<use xlink:href="#SVGID_7_"  style="overflow:visible;"/>
		</clipPath>
		<g class="st4">
			<path class="st1" d="M124,11.6c16.6,0,30.1,13.5,30.1,31S141.2,73.6,124,73.6c-17.7,0-30.2-13.6-30.2-31.1S107.5,11.6,124,11.6z
				 M124,60.4c10.9,0,15.4-8.9,15.4-17.8s-4.8-17.8-15.4-17.8c-10.5,0-15.5,8.9-15.5,17.8S112.8,60.4,124,60.4z"/>
		</g>
	</g>
	<g>
		<defs>
			<rect id="SVGID_9_" x="-332.4" y="-616.8" width="1088.4" height="1088.4"/>
		</defs>
		<clipPath id="SVGID_10_">
			<use xlink:href="#SVGID_9_"  style="overflow:visible;"/>
		</clipPath>
		<g class="st5">
			<path class="st1" d="M172.8,72.5h-13.6V12.7h13.6l23.8,37.1h0.1V12.7h13.6v59.9h-13.6l-23.8-37.1h-0.1V72.5z"/>
		</g>
	</g>
	<g>
		<defs>
			<rect id="SVGID_11_" x="-332.4" y="-616.8" width="1088.4" height="1088.4"/>
		</defs>
		<clipPath id="SVGID_12_">
			<use xlink:href="#SVGID_11_"  style="overflow:visible;"/>
		</clipPath>
		<g class="st6">
			<path class="st1" d="M214.8,12.7h42.1v12h-14.2v47.9H229V24.6h-14.2V12.7z"/>
		</g>
	</g>
	<g>
		<defs>
			<rect id="SVGID_13_" x="-332.4" y="-616.8" width="1088.4" height="1088.4"/>
		</defs>
		<clipPath id="SVGID_14_">
			<use xlink:href="#SVGID_13_"  style="overflow:visible;"/>
		</clipPath>
		<g class="st7">
			<path class="st1" d="M313.9,24.6h-20.6v11.9H313v12h-19.7v12h20.6v12h-34.2V12.7h34.2V24.6z"/>
		</g>
	</g>
	<g>
		<defs>
			<rect id="SVGID_15_" x="-332.4" y="-616.8" width="1088.4" height="1088.4"/>
		</defs>
		<clipPath id="SVGID_16_">
			<use xlink:href="#SVGID_15_"  style="overflow:visible;"/>
		</clipPath>
		<g class="st8">
			<path class="st1" d="M333.4,72.5h-13.6V12.7h13.6l23.8,37.1h0.1V12.7H371v59.9h-13.6l-23.8-37.1h-0.1V72.5z"/>
		</g>
	</g>
	<g>
		<defs>
			<rect id="SVGID_17_" x="-332.4" y="-616.8" width="1088.4" height="1088.4"/>
		</defs>
		<clipPath id="SVGID_18_">
			<use xlink:href="#SVGID_17_"  style="overflow:visible;"/>
		</clipPath>
		<g class="st9">
			<path class="st1" d="M394.1,12.7c16.4,0,30.2,12.5,30.2,29.9c0,17.5-13.7,30-30.2,30h-17.3V12.7H394.1z M392.5,60.3
				c10.1,0,17-7.7,17.1-17.7c0-10-6.9-17.8-17.1-17.8h-2.1v35.5H392.5z"/>
		</g>
	</g>
	<g>
		<defs>
			<rect id="SVGID_19_" x="-332.4" y="-616.8" width="1088.4" height="1088.4"/>
		</defs>
		<clipPath id="SVGID_20_">
			<use xlink:href="#SVGID_19_"  style="overflow:visible;"/>
		</clipPath>
		<g class="st10">
			<path class="st1" d="M34.1,137.9H23.3v41H9.5V84.7h13.8v39h10.8v-39h13.8V179H34.1V137.9z"/>
			<path class="st1" d="M53.4,179l14.2-94.2h16.9L98.8,179H85.4l-2.6-19.2H69.5L66.9,179H53.4z M76.9,115.4l-0.4-2.4h-0.8l-0.4,2.4
				l-4,29.7h9.5L76.9,115.4z"/>
		</g>
		<g class="st10">
			<path class="st1" d="M102.8,84.7h13.8c6,0,12,1.5,16.7,5.9c4.6,4.4,7.7,11.5,7.7,22.3c0,10.8-3.1,17.8-7.7,22.2
				c-4.6,4.4-10.6,6.2-16.7,6.2V179h-13.8V84.7z M116.6,127.2c4.2,0,6.9-0.8,8.5-2.9c1.5-2.1,1.9-5.5,1.9-10.8s-0.4-9-1.9-11.3
				s-4.2-3.3-8.5-3.3V127.2z"/>
		</g>
	</g>
	<g>
		<defs>
			<rect id="SVGID_21_" x="-332.4" y="-616.8" width="1088.4" height="1088.4"/>
		</defs>
		<clipPath id="SVGID_22_">
			<use xlink:href="#SVGID_21_"  style="overflow:visible;"/>
		</clipPath>
		<g class="st11">
			<path class="st1" d="M145.9,84.7h13.8c6,0,12,1.5,16.7,5.9c4.6,4.4,7.7,11.5,7.7,22.3c0,10.8-3.1,17.8-7.7,22.2
				c-4.6,4.4-10.6,6.2-16.7,6.2V179h-13.8V84.7z M159.8,127.2c4.2,0,6.9-0.8,8.5-2.9c1.5-2.1,1.9-5.5,1.9-10.8s-0.4-9-1.9-11.3
				s-4.2-3.3-8.5-3.3V127.2z"/>
			<path class="st1" d="M206.4,114.9l0.4,0.9h0.3l0.4-0.9l6.9-30.1H228l-14.1,54.1V179H200v-40.1l-14.1-54.1h13.6L206.4,114.9z"/>
			<path class="st1" d="M276.6,137.9h-10.8v41h-13.8V84.7h13.8v39h10.8v-39h13.8V179h-13.8V137.9z"/>
			<path class="st1" d="M335.9,159.6c-0.1,3.8-0.9,7.3-2.3,10.3c-1.2,2.6-2.9,5-5.5,6.9c-2.6,2.1-6,3.2-10.6,3.2s-8.2-1.2-10.8-3.2
				c-2.6-1.9-4.2-4.4-5.4-6.9c-1.4-2.9-2.2-6.4-2.3-10.3v-55.5c0.1-3.7,0.9-7.2,2.3-10.1c1.2-2.6,2.8-5.1,5.4-7.1s6.2-3.2,10.8-3.2
				s8.1,1.3,10.6,3.2c2.6,1.9,4.4,4.5,5.5,7.1c1.4,2.9,2.2,6.4,2.3,10.1V159.6z M322.1,104.1c0-2.6-0.5-4.4-1.8-5.9
				c-0.6-0.6-1.7-1-2.8-1c-2.4,0-3.6,1.8-4.1,3.5c-0.4,1-0.5,2.2-0.5,3.5v55.5c0,2.7,0.6,4.5,1.9,5.9c0.6,0.6,1.5,1,2.7,1
				c2.4,0,3.6-1.5,4.1-3.5c0.4-0.9,0.5-2.1,0.5-3.5V104.1z"/>
			<path class="st1" d="M381.2,84.7v74.9c-0.1,3.8-0.9,7.3-2.3,10.3c-1.2,2.6-2.9,5-5.5,6.9c-2.6,2.1-6,3.2-10.6,3.2
				c-4.6,0-8.2-1.2-10.8-3.2c-2.6-1.9-4.2-4.4-5.4-6.9c-1.4-2.9-2.2-6.4-2.3-10.3V84.7h13.8v74.9c0,2.7,0.6,4.5,1.9,5.9
				c0.6,0.6,1.5,1,2.7,1c2.4,0,3.6-1.5,4.1-3.5c0.4-0.9,0.5-2.1,0.5-3.5V84.7H381.2z"/>
		</g>
		<g class="st11">
			<path class="st1" d="M409.6,179l-7.2-39.7h-3.7V179h-13.8V84.7h13.8c16.5,0,23.6,9.4,23.6,27.2c0,9.4-2.4,17.8-7.7,21.4l8.8,45.6
				H409.6z M398.7,126.4c1.9,0,4.5-0.3,6.5-2.1s3.7-5.3,3.7-11.9s-1.7-10.3-3.7-12c-2.1-1.8-4.6-1.9-6.5-1.9V126.4z"/>
		</g>
	</g>
</g>
</svg>
