<?xml version="1.0" encoding="utf-8"?>
<!-- Generator: Adobe Illustrator 19.0.0, SVG Export Plug-In . SVG Version: 6.00 Build 0)  -->
<svg version="1.1" id="Layer_1" xmlns="http://www.w3.org/2000/svg" xmlns:xlink="http://www.w3.org/1999/xlink" x="0px" y="0px"
	 viewBox="0 0 500 500" style="enable-background:new 0 0 500 500;" xml:space="preserve">
<style type="text/css">
	.st0{fill:#3a4750;}
</style>
<g id="XMLID_1_">
	<path id="XMLID_13_" class="st0" d="M250,432.3c-100.7,0-182.3-81.6-182.3-182.3S149.3,67.7,250,67.7S432.3,149.3,432.3,250
		S350.7,432.3,250,432.3z M211.3,411.3c9.8-7.5,19.3-16.2,28.1-26c-4.5-5.2-8.8-10.6-13-16.3l-16.8,41.9
		C210.2,411,210.7,411.2,211.3,411.3z M249.8,372.8c5.7-7.3,11-15.2,16-23.5L250,310l-15.9,39.9C238.9,358,244.2,365.7,249.8,372.8z
		 M259.3,384.3c9.1,10.2,18.9,19.3,29.1,27.1c0.7-0.2,1.4-0.3,2-0.5l-17.6-44C268.5,373,264,378.8,259.3,384.3z M270.4,414.6
		c-7.4-5.7-14.5-12.1-21.4-18.9c-6.6,6.8-13.5,13.1-20.6,18.8c7.1,0.9,14.2,1.4,21.6,1.4C256.9,415.9,263.7,415.4,270.4,414.6z
		 M250,84.1c-91.6,0-165.9,74.3-165.9,165.9c0,73.3,47.5,135.4,113.4,157.4l42.6-127.8c-12.4-4.1-21.3-15.8-21.3-29.6
		c0-17.2,14-31.2,31.2-31.2s31.2,14,31.2,31.2c0,13.8-8.9,25.5-21.3,29.6l42.6,127.8c65.9-22,113.4-84.1,113.4-157.4
		C415.9,158.4,341.6,84.1,250,84.1z M342.3,342.3l-11.6-11.6c20.7-20.7,33.4-49.2,33.4-80.7c0-31.5-12.8-60.1-33.4-80.7l11.6-11.6
		c23.6,23.6,38.2,56.3,38.2,92.3C380.6,286.1,365.9,318.7,342.3,342.3z M295,295c11.5-11.5,18.6-27.4,18.6-45s-7.1-33.5-18.6-45
		l11.6-11.6c14.5,14.5,23.4,34.5,23.4,56.6s-9,42.1-23.4,56.6L295,295z M193.4,306.6c-14.5-14.5-23.4-34.5-23.4-56.6
		s9-42.1,23.4-56.6L205,205c-11.5,11.5-18.6,27.4-18.6,45s7.1,33.5,18.6,45L193.4,306.6z M157.7,342.3
		c-23.6-23.6-38.2-56.3-38.2-92.3c0-36.1,14.6-68.7,38.2-92.3l11.6,11.6c-20.7,20.7-33.4,49.2-33.4,80.7c0,31.5,12.8,60.1,33.4,80.7
		L157.7,342.3z"/>
	<path id="XMLID_24_" class="st1" d="M250,432.3v-0.2c-50.3,0-95.8-20.4-128.8-53.3c-33-33-53.3-78.5-53.3-128.8l0,0
		c0-50.3,20.4-95.8,53.3-128.8c33-33,78.5-53.3,128.8-53.3c50.3,0,95.8,20.4,128.8,53.3c33,33,53.3,78.5,53.3,128.8
		c0,50.3-20.4,95.8-53.3,128.8c-33,33-78.5,53.3-128.8,53.3V432.3v0.2c100.8,0,182.5-81.7,182.5-182.5
		c0-100.8-81.7-182.5-182.5-182.5C149.2,67.5,67.5,149.2,67.5,250l0,0c0,100.8,81.7,182.5,182.5,182.5V432.3z M211.3,411.3l0.1,0.2
		c9.8-7.5,19.3-16.2,28.1-26l0.1-0.1l-0.1-0.1c-4.5-5.2-8.8-10.6-13-16.3l-0.2-0.3l-17,42.5l0.2,0.1c0.6,0.1,1.1,0.3,1.7,0.4l0.1,0
		l0.1-0.1L211.3,411.3l0-0.2c-0.6-0.1-1.1-0.3-1.7-0.4l0,0.2l0.2,0.1l16.8-41.9l-0.2-0.1l-0.2,0.1c4.1,5.7,8.5,11.2,13,16.3l0.2-0.1
		l-0.2-0.1c-8.8,9.8-18.2,18.5-28.1,26L211.3,411.3l0-0.2L211.3,411.3z M249.8,372.8l0.2,0.1c5.7-7.3,11.1-15.2,16-23.5l0.1-0.1
		l-16-40l-16.2,40.4l0.1,0.1c4.9,8.1,10.1,15.8,15.7,23l0.2,0.2l0.2-0.2L249.8,372.8l0.2-0.1c-5.6-7.2-10.8-14.9-15.7-23l-0.2,0.1
		l0.2,0.1l15.8-39.4l15.6,38.9l0.2-0.1l-0.2-0.1c-5,8.3-10.3,16.2-16,23.5L249.8,372.8l0.2-0.1L249.8,372.8z M259.3,384.3l-0.2,0.1
		c9.1,10.2,18.9,19.3,29.1,27.1l0.1,0.1l0.1,0c0.7-0.2,1.4-0.3,2-0.5l0.2-0.1l-17.8-44.6l-0.2,0.3c-4.3,6.1-8.8,11.9-13.5,17.5
		l-0.1,0.1l0.1,0.1L259.3,384.3l0.2,0.1c4.7-5.5,9.2-11.4,13.5-17.5l-0.2-0.1l-0.2,0.1l17.6,44l0.2-0.1l0-0.2
		c-0.7,0.2-1.4,0.3-2,0.5l0,0.2l0.1-0.2c-10.2-7.8-19.9-16.8-29-27L259.3,384.3l0.2,0.1L259.3,384.3z M270.4,414.6l0.1-0.2
		c-7.4-5.7-14.5-12-21.3-18.9l-0.1-0.1l-0.1,0.2c-6.6,6.8-13.5,13.1-20.6,18.8l-0.4,0.3l0.5,0.1c7.1,0.9,14.3,1.4,21.6,1.4
		c6.9,0,13.7-0.4,20.4-1.3l0.5-0.1l-0.4-0.3L270.4,414.6l0-0.2c-6.7,0.8-13.5,1.2-20.4,1.2c-7.3,0-14.5-0.5-21.5-1.4l0,0.2l0.1,0.2
		c7.1-5.7,14-12,20.6-18.8l-0.1-0.1l-0.1,0.1c6.8,6.9,14,13.2,21.4,19L270.4,414.6l0-0.2L270.4,414.6z M250,84.1v-0.2
		c-91.7,0-166.1,74.4-166.1,166.1c0,73.4,47.6,135.6,113.5,157.6l0.2,0.1l42.7-128.2l-0.2-0.1c-12.3-4.1-21.2-15.7-21.2-29.4
		c0-8.6,3.5-16.3,9.1-21.9c5.6-5.6,13.4-9.1,21.9-9.1c8.6,0,16.3,3.5,21.9,9.1c5.6,5.6,9.1,13.4,9.1,21.9c0,13.7-8.9,25.3-21.2,29.4
		l-0.2,0.1l42.7,128.2l0.2-0.1c66-22,113.5-84.2,113.5-157.6c0-91.7-74.4-166.1-166.1-166.1V84.1v0.2c45.7,0,87.2,18.5,117.1,48.5
		c30,30,48.5,71.4,48.5,117.1c0,73.2-47.5,135.3-113.3,157.2l0.1,0.2l0.2-0.1l-42.6-127.8l-0.2,0.1l0.1,0.2
		c12.5-4.2,21.5-15.9,21.5-29.8c0-17.3-14.1-31.4-31.4-31.4c-17.3,0-31.4,14.1-31.4,31.4c0,13.9,9,25.6,21.5,29.8l0.1-0.2l-0.2-0.1
		l-42.6,127.8l0.2,0.1l0.1-0.2c-65.8-21.9-113.3-84-113.3-157.2c0-45.7,18.5-87.2,48.5-117.1c30-30,71.4-48.5,117.1-48.5V84.1z
		 M342.3,342.3l0.1-0.1l-11.6-11.6l-0.1,0.1l0.1,0.1c20.7-20.7,33.5-49.3,33.5-80.9c0-31.6-12.8-60.2-33.5-80.9l-0.1,0.1l0.1,0.1
		l11.6-11.6l-0.1-0.1l-0.1,0.1c23.6,23.6,38.2,56.2,38.2,92.2c0,36-14.6,68.6-38.2,92.2L342.3,342.3l0.1-0.1L342.3,342.3l0.1,0.1
		c23.7-23.7,38.3-56.4,38.3-92.5c0-36.1-14.6-68.8-38.3-92.5l-0.1-0.1l-11.9,11.9l0.1,0.1c20.6,20.6,33.4,49.1,33.4,80.6
		c0,31.5-12.8,59.9-33.4,80.6l-0.1,0.1l11.9,11.9l0.1-0.1L342.3,342.3z M295,295l0.1,0.1c11.6-11.6,18.7-27.5,18.7-45.1
		c0-17.6-7.1-33.6-18.7-45.1L295,205l0.1,0.1l11.6-11.6l-0.1-0.1l-0.1,0.1c14.5,14.5,23.4,34.4,23.4,56.5c0,22.1-8.9,42-23.4,56.5
		l0.1,0.1l0.1-0.1l-11.6-11.6L295,295l0.1,0.1L295,295l-0.1,0.1l11.8,11.8l0.1-0.1c14.5-14.5,23.5-34.6,23.5-56.8
		c0-22.2-9-42.2-23.5-56.8l-0.1-0.1L294.7,205l0.1,0.1c11.5,11.5,18.6,27.3,18.6,44.9c0,17.5-7.1,33.4-18.6,44.9l-0.1,0.1l0.1,0.1
		L295,295z M193.4,306.6l0.1-0.1c-14.5-14.5-23.4-34.4-23.4-56.5c0-22.1,8.9-42,23.4-56.5l-0.1-0.1l-0.1,0.1l11.6,11.6l0.1-0.1
		l-0.1-0.1c-11.6,11.6-18.7,27.5-18.7,45.1c0,17.6,7.1,33.6,18.7,45.1l0.1-0.1l-0.1-0.1l-11.6,11.6L193.4,306.6l0.1-0.1L193.4,306.6
		l0.1,0.1l11.8-11.8l-0.1-0.1c-11.5-11.5-18.6-27.3-18.6-44.9c0-17.5,7.1-33.4,18.6-44.9l0.1-0.1l-11.9-11.9l-0.1,0.1
		c-14.5,14.5-23.5,34.6-23.5,56.8c0,22.2,9,42.2,23.5,56.8l0.1,0.1l0.1-0.1L193.4,306.6z M157.7,342.3l0.1-0.1
		c-23.6-23.6-38.2-56.2-38.2-92.2c0-36,14.6-68.6,38.2-92.2l-0.1-0.1l-0.1,0.1l11.6,11.6l0.1-0.1l-0.1-0.1
		c-20.7,20.7-33.5,49.3-33.5,80.9c0,31.6,12.8,60.2,33.5,80.9l0.1-0.1l-0.1-0.1l-11.6,11.6L157.7,342.3l0.1-0.1L157.7,342.3l0.1,0.1
		l11.8-11.8l-0.1-0.1c-20.6-20.6-33.4-49.1-33.4-80.6c0-31.5,12.8-59.9,33.4-80.6l0.1-0.1l-11.9-11.9l-0.1,0.1
		c-23.7,23.7-38.3,56.4-38.3,92.5c0,36.1,14.6,68.8,38.3,92.5l0.1,0.1l0.1-0.1L157.7,342.3z"/>
</g>
</svg>
