<?xml version="1.0" encoding="utf-8"?>
<!-- Generator: Adobe Illustrator 19.0.0, SVG Export Plug-In . SVG Version: 6.00 Build 0)  -->
<svg version="1.1" id="Layer_1" xmlns="http://www.w3.org/2000/svg" xmlns:xlink="http://www.w3.org/1999/xlink" x="0px" y="0px"
	 viewBox="0 0 400 240" style="enable-background:new 0 0 400 240; max-width: 100%;" xml:space="preserve">
<style type="text/css">
	.st0{fill:#FFFFFF;}
</style>
<path class="st0" d="M0,122.5C0,100.3,5.3,79.8,15.8,61s24.9-33.7,43-44.6S96.6,0,118,0s41.1,5.5,59.2,16.4s32.4,25.8,43,44.6
	s15.8,39.3,15.8,61.5c0,0.6,0,1.4-0.1,2.4s-0.1,1.7-0.1,2.4c-1.3-32.7-13.3-60.5-36-83.3S149.8,9.7,118,9.7S59,21.1,36.2,43.9
	s-34.7,50.6-36,83.3c0-0.6,0-1.4-0.1-2.4S0,123.1,0,122.5z M43.2,122.2c0-21.4,7.3-39.7,21.9-54.9S97.4,44.6,118,44.6
	s38.2,7.6,52.9,22.8s21.9,33.5,21.9,54.9c0,0.5,0,1.3-0.1,2.4c-0.1,1.1-0.1,1.9-0.1,2.4c-1.3-20.3-9-37.5-23.4-51.7S137.8,54,118,54
	s-36.9,7.1-51.2,21.2S44.7,106.7,43.4,127c0-0.5,0-1.3-0.1-2.4C43.2,123.5,43.2,122.7,43.2,122.2z M82.4,168.3
	c0-5.2,0.4-9.8,1.1-13.9c0.7-4.1,1.5-7.5,2.5-10.1s2.4-5,4.4-6.8c2-1.9,3.8-3.3,5.4-4.2s3.9-1.7,6.7-2.2c2.8-0.6,5.3-0.9,7.3-0.9
	c2-0.1,4.8-0.1,8.3-0.1c3.5,0,6.2,0,8.3,0.1s4.5,0.4,7.3,0.9s5.1,1.3,6.7,2.2c1.7,0.9,3.5,2.4,5.4,4.2s3.4,4.2,4.4,6.8
	s1.8,6.1,2.5,10.1c0.7,4.1,1.1,8.7,1.1,13.9c0,18.6-3.5,34.5-10.5,47.8S127.8,236,118,236s-18.1-6.6-25.1-19.9
	C85.9,202.8,82.4,186.8,82.4,168.3z M93.5,102.2c0-6.9,2.4-12.9,7.2-17.9s10.6-7.6,17.3-7.6c6.8,0,12.5,2.5,17.3,7.6
	c4.8,5,7.2,11,7.2,17.9c0,6.9-2.4,12.9-7.2,17.9c-4.8,5-10.6,7.6-17.3,7.6c-6.8,0-12.5-2.5-17.3-7.6
	C95.9,115.1,93.5,109.1,93.5,102.2z"/>
</svg>
