<?xml version="1.0" encoding="utf-8"?>
<!-- Generator: Adobe Illustrator 19.0.0, SVG Export Plug-In . SVG Version: 6.00 Build 0)  -->
<svg version="1.1" id="Layer_1" xmlns="http://www.w3.org/2000/svg" xmlns:xlink="http://www.w3.org/1999/xlink" x="0px" y="0px"
	 viewBox="0 0 400 240" style="enable-background:new 0 0 400 240;" xml:space="preserve">
<style type="text/css">
	.st0{fill:#FFFFFF;}
</style>
<path class="st0" d="M51.8,169.6c6.9,0,12.8,2.4,17.7,7.3s7.3,10.7,7.3,17.4s-2.4,12.5-7.3,17.4S58.7,219,51.8,219
	s-12.8-2.4-17.5-7.3s-7.1-10.7-7.1-17.4s2.4-12.5,7.1-17.4S44.8,169.6,51.8,169.6z M51.8,21c31.3,0,60.3,7.7,87,23.2
	c26.7,15.5,47.8,36.5,63.3,63.2s23.3,55.6,23.3,87c0,6.7-2.4,12.5-7.3,17.4s-10.8,7.3-17.7,7.3c-6.9,0-12.8-2.4-17.5-7.3
	c-4.8-4.9-7.1-10.7-7.1-17.4c0-34.1-12.1-63.3-36.3-87.6S86,70.4,51.8,70.4c-6.9,0-12.8-2.4-17.5-7.3s-7.1-10.7-7.1-17.4
	s2.4-12.5,7.1-17.4S44.8,21,51.8,21z M51.8,95.3c27.4,0,50.7,9.7,70.2,29s29.1,42.7,29.1,70c0,6.7-2.4,12.5-7.3,17.4
	S133,219,126.1,219c-6.9,0-12.8-2.4-17.5-7.3s-7.1-10.7-7.1-17.4c0-13.7-4.9-25.4-14.6-35.1c-9.7-9.7-21.4-14.6-35.1-14.6
	c-6.9,0-12.8-2.4-17.5-7.3s-7.1-10.7-7.1-17.4c0-6.7,2.4-12.5,7.1-17.4S44.8,95.3,51.8,95.3z"/>
</svg>
