<svg id="Layer_1" xmlns="http://www.w3.org/2000/svg" viewBox="0 0 400 240" style="max-width:100%"><style>.st0{fill:#fff}</style><path class="st0" d="M51.8 169.6c6.9 0 12.8 2.4 17.7 7.3s7.3 10.7 7.3 17.4-2.4 12.5-7.3 17.4-10.8 7.3-17.7 7.3-12.8-2.4-17.5-7.3-7.1-10.7-7.1-17.4 2.4-12.5 7.1-17.4 10.5-7.3 17.5-7.3zm0-148.6c31.3 0 60.3 7.7 87 23.2 26.7 15.5 47.8 36.5 63.3 63.2s23.3 55.6 23.3 87c0 6.7-2.4 12.5-7.3 17.4s-10.8 7.3-17.7 7.3c-6.9 0-12.8-2.4-17.5-7.3-4.8-4.9-7.1-10.7-7.1-17.4 0-34.1-12.1-63.3-36.3-87.6S86 70.4 51.8 70.4c-6.9 0-12.8-2.4-17.5-7.3s-7.1-10.7-7.1-17.4 2.4-12.5 7.1-17.4S44.8 21 51.8 21zm0 74.3c27.4 0 50.7 9.7 70.2 29s29.1 42.7 29.1 70c0 6.7-2.4 12.5-7.3 17.4S133 219 126.1 219c-6.9 0-12.8-2.4-17.5-7.3s-7.1-10.7-7.1-17.4c0-13.7-4.9-25.4-14.6-35.1-9.7-9.7-21.4-14.6-35.1-14.6-6.9 0-12.8-2.4-17.5-7.3s-7.1-10.7-7.1-17.4c0-6.7 2.4-12.5 7.1-17.4s10.5-7.2 17.5-7.2z"/></svg>